PathFileType	3	(X/Y/Z)	C:\Users\koon_\Desktop\
DataRate	CameraRate	NumFrames	NumMarkers	Units	OrigDataRate	OrigDataStartFrame	OrigNumFrames
100.0	100.0	11	27	mm	100.0	1351	2700	
Frame#	Time	get:LFHD			get:RFHD			get:LBHD			get:RBHD			get:C7			get:T10			get:CLAV			get:STRN			get:RBAK			get:LSHO			get:LUPA			get:LELB			get:LFRA			get:LWRA			get:LWRB			get:LFIN			get:RSHO			get:RUPA			get:RELB			get:RFRA			get:RWRA			get:RWRB			get:RFIN			get:LASI			get:RASI			get:LPSI			get:RPSI			
		X1	Y1	Z1	X2	Y2	Z2	X3	Y3	Z3	X4	Y4	Z4	X5	Y5	Z5	X6	Y6	Z6	X7	Y7	Z7	X8	Y8	Z8	X9	Y9	Z9	X10	Y10	Z10	X11	Y11	Z11	X12	Y12	Z12	X13	Y13	Z13	X14	Y14	Z14	X15	Y15	Z15	X16	Y16	Z16	X17	Y17	Z17	X18	Y18	Z18	X19	Y19	Z19	X20	Y20	Z20	X21	Y21	Z21	X22	Y22	Z22	X23	Y23	Z23	X24	Y24	Z24	X25	Y25	Z25	X26	Y26	Z26	X27	Y27	Z27	
1351	13.5	67.827736	1560.1954	-32.608322	-73.245728	1555.5646	-34.881344	46.416279	1560.3579	-193.71738	-82.476082	1531.8628	-200.44809	-13.241036	1350.9371	-205.10849	-18.395185	1145.6211	-235.20595	9.9506826	1269.9973	-7.8869958	16.749971	1078.5967	39.784519	-100.6477	1286.2434	-210.93179	116.07407	1343.2705	-138.53987	241.89659	1289.2242	-113.79137	364.70575	1226.0378	-57.968891	308.05103	1327.0359	13.906905	287.36713	1378.3965	80.907166	365.92593	1393.1038	49.576019	292.92358	1461.8589	44.956497	-125.73512	1352.0156	-82.828621	-255.75153	1153.2109	-79.668716	-326.78632	1080.0386	-161.68349	-297.57431	996.46326	-117.65426	-294.90588	846.88245	-175.13432	-373.2388	867.78247	-189.11505	-338.35779	769.09082	-162.04286	132.5477	892.92218	-10.155813	-130.47003	877.88678	-5.2009029	37.490959	956.36353	-219.40018	-52.450596	953.28601	-218.96271
1352	13.51	68.089516	1560.0588	-32.121609	-72.976822	1555.5667	-34.282303	46.560379	1560.2797	-193.17169	-82.31443	1531.8677	-199.74133	-13.533668	1350.9591	-204.17529	-18.359604	1145.7992	-234.31731	9.462081	1270.0648	-7.084568	16.334824	1078.6437	40.678085	-100.5638	1286.525	-209.79393	115.45276	1343.0248	-137.73642	241.68735	1292.3142	-114.2606	365.79306	1232.9121	-60.172264	306.6814	1336.5574	4.1993194	284.43011	1391.7684	67.454422	362.34033	1406.626	34.486565	286.81659	1471.9384	24.679564	-126.04159	1352.1924	-81.637558	-256.0806	1153.5001	-82.794815	-326.14789	1082.6466	-167.75826	-297.89117	997.52557	-126.04038	-295.57166	849.91235	-189.04715	-373.73785	871.7428	-202.67116	-339.45386	771.99042	-178.9492	132.27448	892.76385	-9.3973951	-130.73094	877.68787	-4.4253011	37.41021	956.42114	-218.61092	-52.554764	953.33722	-218.22382
1353	13.52	68.302628	1559.9637	-31.617172	-72.771019	1555.5862	-33.661144	46.704807	1560.1997	-192.62671	-82.195007	1531.8699	-199.1745	-13.80234	1350.9631	-203.32623	-18.367706	1145.9763	-233.38887	8.8427038	1270.1797	-6.2201896	15.886641	1078.627	41.86414	-100.47885	1286.7804	-208.44214	114.8278	1342.7861	-136.96307	241.40326	1295.1113	-114.86416	366.81909	1239.0725	-62.50502	305.17255	1344.6927	-5.433207	281.40329	1403.4285	53.703106	358.74496	1418.2385	19.294394	280.90326	1479.9515	4.5215449	-126.3051	1352.2014	-80.288414	-256.33356	1153.692	-86.001244	-325.19745	1085.2749	-173.9855	-298.06207	998.70801	-134.37723	-295.86697	853.13647	-202.72752	-373.79309	875.97369	-216.31978	-339.89691	775.13147	-197.1613	132.01711	892.61499	-8.5349016	-130.98933	877.5354	-3.759558	37.356838	956.46729	-217.74068	-52.67506	953.35291	-217.3577
1354	13.53	68.436668	1559.8867	-31.022234	-72.648514	1555.5579	-33.071602	46.828564	1560.0905	-192.06665	-82.076141	1531.848	-198.64313	-14.031378	1350.9836	-202.47211	-18.337952	1146.1003	-232.41843	8.2199268	1270.3153	-5.4320803	15.44397	1078.6244	42.941521	-100.29907	1287.4493	-208.30513	114.25108	1342.5922	-136.19939	241.16838	1297.5945	-115.55824	367.69345	1244.5317	-65.002708	303.48074	1351.6396	-15.028405	278.17776	1413.4098	39.805405	354.97256	1427.9677	4.1635213	275.39862	1485.8057	-14.739956	-126.64504	1352.207	-79.219749	-256.42657	1153.8779	-89.378616	-323.96637	1087.881	-180.15869	-297.99197	1000.0543	-142.94731	-295.75003	856.72437	-216.55757	-373.41217	880.43494	-229.77344	-340.08304	778.72742	-214.10091	131.75639	892.4624	-7.6566434	-131.22922	877.34351	-2.9358749	37.197056	956.58569	-216.77884	-52.762329	953.35583	-216.43896
1355	13.54	68.545219	1559.8263	-30.37945	-72.58773	1555.5653	-32.507824	46.942207	1560.0096	-191.4532	-82.023872	1531.8318	-198.11217	-14.257167	1350.9869	-201.50766	-18.378853	1146.2477	-231.36967	7.595799	1270.3947	-4.5691562	15.059448	1078.6479	43.992012	-100.19035	1287.8524	-207.53029	113.68929	1342.5979	-135.43167	241.01668	1299.8295	-116.28542	368.4939	1249.3407	-67.682518	301.35266	1356.9657	-23.465342	274.85385	1421.6833	25.961245	351.11621	1435.9174	-10.808511	269.80515	1489.6411	-33.72646	-127.01884	1352.2106	-78.247208	-256.47745	1154.0265	-93.100159	-322.58856	1090.6354	-186.54889	-297.61142	1001.5489	-151.53593	-294.9805	860.73248	-230.34367	-372.62659	885.11322	-242.93419	-339.47534	782.74512	-231.03857	131.56223	892.31976	-6.7780528	-131.42003	877.14075	-2.2287192	37.146786	956.50977	-215.79959	-52.846596	953.40198	-215.57927
1356	13.55	68.571892	1559.759	-29.798996	-72.498436	1555.5535	-31.913948	46.999054	1559.8624	-190.86194	-82.007706	1531.76	-197.43765	-14.361161	1350.9614	-200.66869	-18.309063	1146.4221	-230.58542	6.9544649	1270.5189	-3.8674419	14.569913	1078.6591	45.212013	-99.931725	1288.2748	-206.8802	113.1608	1342.5552	-134.63657	240.84924	1301.8982	-117.14883	369.13699	1253.5259	-70.50338	299.69434	1361.5165	-33.413761	271.45575	1428.3694	12.302277	347.24597	1442.1365	-25.574652	264.07581	1491.4723	-52.135399	-127.38412	1352.0861	-77.025459	-256.39307	1154.3075	-96.930801	-321.18289	1093.4301	-193.09705	-296.87149	1003.3124	-160.19675	-293.6955	865.04852	-244.0266	-371.27203	889.93341	-255.75531	-338.21606	786.97375	-246.576	131.36166	892.17664	-5.8252077	-131.63994	876.9848	-1.232692	37.043652	956.60352	-214.98714	-52.978775	953.41998	-214.64955
1357	13.56	68.589149	1559.6482	-29.239981	-72.501228	1555.5688	-31.303116	46.96109	1559.7493	-190.32716	-82.000008	1531.7084	-196.80797	-14.554832	1350.9674	-199.85902	-18.351109	1146.4547	-229.55602	6.2168179	1270.6201	-2.9911602	14.135129	1078.7451	46.21067	-99.698303	1288.4243	-205.52055	112.58643	1342.5725	-133.84666	240.7776	1303.6791	-118.06365	369.77625	1256.9585	-73.473244	297.88092	1364.9216	-42.336967	268.11707	1433.7236	-1.036014	343.43076	1446.7727	-39.998951	259.2027	1491.9338	-69.379333	-127.8548	1352.0208	-76.193413	-256.28775	1154.658	-100.71112	-319.57776	1096.1587	-199.20058	-295.70404	1005.2195	-168.69704	-291.92661	869.69147	-257.39456	-369.69067	894.88916	-268.43204	-336.92276	791.2652	-261.30725	131.23581	891.99158	-4.9266214	-131.71996	876.85443	-0.71321505	36.909855	956.62482	-213.99895	-53.114891	953.45581	-213.76785
1358	13.57	68.584961	1559.5404	-28.744814	-72.473076	1555.5789	-30.693623	46.910847	1559.6064	-189.75679	-82.064041	1531.6688	-196.19392	-14.793353	1350.879	-198.87511	-18.323963	1146.5989	-228.51982	5.4401708	1270.7422	-2.2115536	13.668398	1078.7961	47.327412	-99.484535	1289.2203	-205.69316	112.01398	1342.5642	-133.06476	240.74255	1305.245	-119.12966	370.34427	1259.7832	-76.44838	295.90292	1367.1475	-51.115288	264.73477	1437.3198	-14.066676	339.53638	1449.9584	-54.140388	254.05908	1490.8448	-85.992462	-128.3382	1351.918	-75.281937	-256.20175	1155.2756	-103.79727	-317.75595	1098.9269	-205.47383	-295.16379	1008.0416	-171.18304	-289.91791	874.44684	-270.47742	-367.62381	899.98981	-280.85654	-334.88586	796.1615	-277.13998	131.08411	891.83307	-4.0014281	-131.84973	876.68219	0.34388834	36.791626	956.69006	-213.04454	-53.216381	953.48053	-212.90138
1359	13.58	68.583229	1559.3787	-28.280893	-72.480118	1555.5973	-30.057753	46.751144	1559.4766	-189.24652	-82.237061	1531.6289	-195.49266	-15.014991	1350.9213	-198.12161	-18.289259	1146.7242	-227.68758	4.5731592	1270.864	-1.3873571	13.110743	1078.7592	48.306477	-99.242477	1289.6659	-204.99858	111.42505	1342.6012	-132.27679	240.62669	1306.6281	-120.48073	370.86679	1261.8823	-79.594528	294.03729	1368.3594	-59.805565	261.4787	1439.5865	-25.917145	335.67175	1451.666	-67.923805	249.02052	1488.3092	-101.55511	-128.78825	1351.7406	-74.109085	-255.91904	1155.6251	-107.55759	-315.60406	1101.7537	-211.72685	-292.28369	1009.2328	-186.30122	-287.73578	879.32074	-283.02731	-365.27176	905.36542	-293.34564	-332.73886	801.34937	-292.6886	130.94295	891.72418	-3.0198567	-132.31958	876.59381	2.7604575	36.705688	956.74426	-212.13229	-53.34127	953.52075	-212.00151
1360	13.59	68.549026	1559.1981	-27.733599	-72.517532	1555.5909	-29.466953	46.580673	1559.303	-188.75415	-82.446693	1531.6211	-194.91846	-15.337068	1350.9586	-197.29839	-18.2703	1146.3942	-226.11024	3.7016659	1271.0183	-0.68515146	12.530736	1078.8463	49.186787	-99.052589	1290.1436	-204.50211	110.78484	1342.7302	-131.5838	240.57928	1307.9022	-121.69296	371.38745	1263.231	-82.746719	291.92108	1368.4423	-67.021049	258.23895	1440.7028	-38.063164	332.03766	1452.0703	-81.235367	244.09822	1484.5204	-116.24535	-129.37848	1351.6213	-73.174294	-255.53543	1155.9626	-111.61813	-313.28857	1104.6311	-218.04195	-292.03888	1012.4737	-187.77785	-285.24207	884.2735	-295.13205	-362.63513	910.90131	-305.71063	-330.29874	806.80383	-307.65158	130.79108	891.58252	-2.1242149	-132.21219	876.31451	2.3376598	36.643837	956.78717	-211.14977	-53.298569	953.85077	-211.26115
1361	13.6	68.473763	1559.0649	-27.201591	-72.590111	1555.6162	-28.799908	46.338882	1559.129	-188.25006	-82.682373	1531.5974	-194.27997	-15.611857	1350.9292	-196.36823	-18.178095	1146.5862	-225.0862	2.7410417	1271.124	0.22197793	11.934105	1078.9375	49.860279	-98.854355	1290.5852	-203.94812	110.13362	1342.8289	-130.86682	240.44641	1308.9413	-123.14159	371.71692	1264.0881	-86.079384	290.11093	1367.7458	-75.057426	255.10704	1440.655	-49.693493	328.1391	1451.1998	-94.101303	239.00916	1479.4679	-130.21352	-129.99976	1351.3846	-72.728462	-254.94978	1156.278	-115.71489	-310.88785	1107.455	-224.15605	-290.33237	1014.7119	-195.7368	-282.4017	889.30286	-306.78503	-359.73984	916.4483	-317.43048	-327.3652	812.4314	-322.22342	130.61096	891.47321	-1.1889319	-132.34105	876.16357	3.5477386	36.630939	957.09467	-210.72179	-53.511524	953.60803	-210.26338
